<svg xmlns="http://www.w3.org/2000/svg" viewBox="0 0 100 100" width="100" height="100">
  <!-- Background circle with gradient -->
  <defs>
    <radialGradient id="bg" cx="0.5" cy="0.3" r="0.8">
      <stop offset="0%" style="stop-color:#90EE90;stop-opacity:1" />
      <stop offset="100%" style="stop-color:#40E0D0;stop-opacity:1" />
    </radialGradient>
  </defs>
  
  <!-- Background -->
  <circle cx="50" cy="50" r="48" fill="url(#bg)" stroke="#ddd" stroke-width="2"/>
  
  <!-- Dog head -->
  <ellipse cx="50" cy="45" rx="18" ry="16" fill="#D2691E"/>
  
  <!-- Dog ears -->
  <ellipse cx="38" cy="35" rx="6" ry="10" fill="#8B4513" transform="rotate(-30 38 35)"/>
  <ellipse cx="62" cy="35" rx="6" ry="10" fill="#8B4513" transform="rotate(30 62 35)"/>
  
  <!-- White muzzle -->
  <ellipse cx="50" cy="52" rx="8" ry="12" fill="white"/>
  
  <!-- Dog nose -->
  <ellipse cx="50" cy="48" rx="2" ry="1.5" fill="#654321"/>
  
  <!-- Dog eyes -->
  <circle cx="45" cy="40" r="2" fill="#654321"/>
  <circle cx="55" cy="40" r="2" fill="#654321"/>
  <circle cx="45.5" cy="39.5" r="0.5" fill="white"/>
  <circle cx="55.5" cy="39.5" r="0.5" fill="white"/>
  
  <!-- Search magnifying glass -->
  <circle cx="65" cy="35" r="6" fill="rgba(173,216,230,0.8)" stroke="#4682B4" stroke-width="1.5"/>
  <circle cx="65" cy="35" r="3" fill="none" stroke="#4682B4" stroke-width="1.5"/>
  <line x1="67.5" y1="37.5" x2="70" y2="40" stroke="#4682B4" stroke-width="1.5" stroke-linecap="round"/>
  
  <!-- Bottom section with dog silhouettes -->
  <circle cx="50" cy="75" r="15" fill="rgba(25,25,112,0.8)"/>
  
  <!-- Small dog silhouettes -->
  <path d="M42 72 Q40 70 38 72 Q40 74 42 72 M46 78 Q44 76 42 78 Q44 80 46 78 M54 78 Q52 76 50 78 Q52 80 54 78 M58 72 Q56 70 54 72 Q56 74 58 72" fill="rgba(255,255,255,0.9)"/>
</svg>
